<?xml version="1.0" encoding="UTF-8"?>
<svg xmlns="http://www.w3.org/2000/svg" width="200" height="200" viewBox="0 0 200 200" fill="none">
  <g clip-path="url(#clip0_537_386)">
    <path d="M100 39.5078C98.7974 39.5078 97.8226 40.4826 97.8226 41.6853V58.871C97.8226 60.0737 98.7974 61.0485 100 61.0485C101.203 61.0485 102.177 60.0737 102.177 58.871V41.6853C102.177 40.4826 101.203 39.5078 100 39.5078Z" fill="#384656"></path>
    <path d="M100 138.952C98.7974 138.952 97.8226 139.927 97.8226 141.13V158.315C97.8226 159.518 98.7974 160.493 100 160.493C101.203 160.493 102.177 159.518 102.177 158.315V141.13C102.177 139.927 101.203 138.952 100 138.952Z" fill="#384656"></path>
    <path d="M129.266 72.912C129.823 72.912 130.381 72.6994 130.806 72.2742L146.683 56.3968C147.533 55.5465 147.533 54.1679 146.683 53.3174C145.832 52.4671 144.454 52.4671 143.603 53.3174L127.726 69.1948C126.876 70.045 126.876 71.4237 127.726 72.2742C128.152 72.6994 128.709 72.912 129.266 72.912V72.912Z" fill="#384656"></path>
    <path d="M131.376 128.297C130.526 127.447 129.148 127.446 128.297 128.297C127.446 129.147 127.446 130.526 128.297 131.376L143.29 146.37C143.715 146.795 144.272 147.008 144.83 147.008C145.387 147.008 145.944 146.795 146.37 146.37C147.22 145.52 147.22 144.141 146.37 143.29L131.376 128.297Z" fill="#384656"></path>
    <path d="M56.3967 53.3174C55.5462 52.4671 54.1678 52.4671 53.317 53.3174C52.4668 54.1676 52.4668 55.5463 53.317 56.3968L69.1944 72.2742C69.6197 72.6994 70.1771 72.912 70.7343 72.912C71.2914 72.912 71.8488 72.6994 72.2741 72.2742C73.1243 71.4239 73.1243 70.0453 72.2741 69.1948L56.3967 53.3174Z" fill="#384656"></path>
    <path d="M68.624 128.297L52.8903 144.03C52.0401 144.88 52.0401 146.259 52.8903 147.11C53.3156 147.535 53.873 147.748 54.4302 147.748C54.9873 147.748 55.5448 147.535 55.97 147.11L71.7037 131.376C72.5539 130.526 72.5539 129.147 71.7037 128.297C70.8529 127.447 69.4745 127.447 68.624 128.297V128.297Z" fill="#384656"></path>
    <path d="M158.315 97.8223H141.129C139.927 97.8223 138.952 98.7971 138.952 99.9997C138.952 101.202 139.927 102.177 141.129 102.177H158.315C159.518 102.177 160.493 101.202 160.493 99.9997C160.493 98.7971 159.518 97.8223 158.315 97.8223Z" fill="#384656"></path>
    <path d="M61.0483 99.9997C61.0483 98.7971 60.0735 97.8223 58.8708 97.8223H41.6848C40.4822 97.8223 39.5073 98.7971 39.5073 99.9997C39.5073 101.202 40.4822 102.177 41.6848 102.177H58.8708C60.0735 102.177 61.0483 101.202 61.0483 99.9997Z" fill="#384656"></path>
    <path d="M36.1489 105.454C39.7352 105.454 43.8673 102.177 43.8673 97.3867C42.778 94.1684 39.7352 91.8506 36.1489 91.8506C32.5627 91.8506 29.5199 94.1684 28.4306 97.3867C28.4306 102.351 32.5627 105.454 36.1489 105.454Z" fill="#E7A561"></path>
    <path d="M35.3339 53.5637C41.1119 59.3417 50.4798 59.3417 56.2578 53.5637C58.4791 51.3421 60.3561 47.3821 60.3561 43.1836C59.8428 40.3087 58.4791 37.5561 56.2575 35.3345C50.4795 29.5565 41.1116 29.5565 35.3336 35.3345C33.112 37.5561 31.7482 40.3087 31.2349 43.1836C31.2355 47.8996 33.1126 51.3421 35.3339 53.5637Z" fill="#FFE07D"></path>
    <path d="M100 41.6032C103.586 41.6032 107.718 37.3949 107.718 33.5358C106.629 30.3178 103.586 28 100 28C96.4138 28 93.3709 30.3178 92.2817 33.5361C92.2817 38.4619 96.4138 41.6032 100 41.6032V41.6032Z" fill="#B3E59F"></path>
    <path d="M143.742 53.5637C149.52 59.3417 158.888 59.3417 164.666 53.5637C166.887 51.3421 168.764 47.2153 168.764 43.1836C168.251 40.3087 166.887 37.5561 164.666 35.3345C158.888 29.5565 149.52 29.5565 143.742 35.3345C141.521 37.5561 140.157 40.3087 139.644 43.1836C139.644 47.8827 141.521 51.3421 143.742 53.5637Z" fill="#A2DAFD"></path>
    <path d="M163.851 105.454C167.437 105.454 171.569 102.177 171.569 97.3867C170.48 94.1684 167.437 91.8506 163.851 91.8506C160.265 91.8506 157.222 94.1684 156.133 97.3867C156.133 103.448 160.265 105.454 163.851 105.454Z" fill="#B3E59F"></path>
    <path d="M143.742 161.971C149.52 167.749 158.888 167.749 164.666 161.971C166.887 159.75 168.764 155.424 168.764 151.591C168.251 148.716 166.887 145.963 164.666 143.742C158.888 137.964 149.52 137.964 143.742 143.742C141.521 145.963 140.157 148.716 139.644 151.591C139.644 155.982 141.521 159.75 143.742 161.971Z" fill="#FFE07D"></path>
    <path d="M92.2817 161.238C92.2817 165.899 96.4138 169.306 100 169.306C103.586 169.306 107.718 165.788 107.718 161.238C106.629 158.02 103.586 155.702 100 155.702C96.4138 155.702 93.3709 158.02 92.2817 161.238V161.238Z" fill="#E7A561"></path>
    <path d="M35.3339 161.971C41.1119 167.749 50.4798 167.749 56.2578 161.971C58.4791 159.75 60.3561 155.573 60.3561 151.591C59.8428 148.716 58.4791 145.963 56.2575 143.742C50.4795 137.964 41.1116 137.964 35.3336 143.742C33.112 145.963 31.7482 148.716 31.2349 151.591C31.2355 156.281 33.1126 159.75 35.3339 161.971Z" fill="#DE5974"></path>
    <path d="M100 143.742C124.158 143.742 143.742 124.158 143.742 100C143.742 75.8419 124.158 56.2578 100 56.2578C75.8418 56.2578 56.2578 75.8419 56.2578 100C56.2578 124.158 75.8418 143.742 100 143.742Z" fill="#6E9FF0"></path>
    <path d="M130.93 125.704C113.848 142.786 86.1518 142.786 69.0695 125.704C61.1931 117.828 56.9516 107.695 56.3385 97.3867C55.6218 109.435 59.8634 121.724 69.0695 130.93C86.1518 148.012 113.848 148.012 130.93 130.93C140.136 121.724 144.378 109.435 143.661 97.3867C143.048 107.695 138.807 117.828 130.93 125.704Z" fill="#5B90DC"></path>
    <path d="M111.176 76.7959L86.7199 86.9544L84.1887 93.7525L86.7199 100.551L99.0002 108.183L111.176 110.709L113.708 93.7527L111.176 76.7959Z" fill="#E5ECF7"></path>
    <path d="M86.7199 105.777L111.176 115.935L113.708 112.991L111.176 110.709L86.7199 100.551L84.1887 103.082L86.7199 105.777Z" fill="#B9CBEA"></path>
    <path d="M78.0077 103.082H84.437L86.7199 100.551V86.9541H78.0077C75.5785 86.9541 73.6092 88.7684 73.6092 91.0069V96.4986C73.6095 98.7365 74.1202 103.082 78.0077 103.082Z" fill="#DE5974"></path>
    <path d="M77.6161 111.002V121.446C77.6161 123.96 79.6541 125.998 82.1679 125.998C84.682 125.998 86.7199 123.961 86.7199 121.446V111.002L82.1682 108.471L77.6161 111.002Z" fill="#384656"></path>
    <path d="M77.6161 105.776V111.002H86.7199V105.776L82.1682 103.245L77.6161 105.776Z" fill="#2F3B48"></path>
    <path d="M73.6092 96.498V101.724C73.6092 103.962 75.5785 105.776 78.0077 105.776H86.7199V100.551H78.0077C75.5785 100.551 73.6092 98.7365 73.6092 96.498Z" fill="#C7495D"></path>
    <path d="M129.818 93.752C128.74 89.7861 125.274 86.8049 121.059 86.4502L118.527 93.752L121.059 101.054L126.027 101.747C126.027 101.747 129.818 97.84 129.818 93.752V93.752Z" fill="#FFE07D"></path>
    <path d="M121.059 101.054L118.527 103.575L121.059 106.28C126.16 105.851 130.167 101.578 130.167 96.3657C130.167 95.461 130.044 94.5857 129.818 93.7529C128.741 97.7188 125.275 100.7 121.059 101.054V101.054Z" fill="#FFD064"></path>
    <path d="M111.176 110.9C111.176 113.629 111.716 118.372 116.117 118.372C120.519 118.372 121.059 113.629 121.059 110.9V76.6044C121.059 73.8754 118.846 71.6631 116.117 71.6631C113.388 71.6631 111.176 73.8754 111.176 76.6044V110.9Z" fill="#DE5974"></path>
    <path d="M116.117 115.841C113.388 115.841 111.176 113.629 111.176 110.9V116.126C111.176 118.855 113.388 121.067 116.117 121.067C118.846 121.067 121.058 118.855 121.058 116.126V110.9C121.059 113.629 118.846 115.841 116.117 115.841Z" fill="#C7495D"></path>
    <path d="M56.258 159.44C50.48 165.218 41.1122 165.218 35.3342 159.44C33.1126 157.218 31.7488 154.466 31.2355 151.591C30.4137 156.193 31.7777 161.109 35.3342 164.666C41.1122 170.444 50.48 170.444 56.258 164.666C59.8144 161.109 61.1782 156.193 60.3567 151.591C59.8431 154.466 58.4793 157.218 56.258 159.44V159.44Z" fill="#C7495D"></path>
    <path d="M100 166.774C96.4138 166.774 93.3709 164.457 92.2817 161.238C92.0041 162.059 91.8511 162.937 91.8511 163.851C91.8511 168.352 95.4994 172 100 172C104.501 172 108.149 168.352 108.149 163.851C108.149 162.937 107.996 162.059 107.718 161.239C106.629 164.457 103.586 166.774 100 166.774V166.774Z" fill="#E49542"></path>
    <path d="M164.666 159.44C158.888 165.218 149.52 165.218 143.742 159.44C141.52 157.218 140.157 154.466 139.643 151.591C138.822 156.193 140.186 161.109 143.742 164.666C149.52 170.444 158.888 170.444 164.666 164.666C168.222 161.109 169.586 156.193 168.765 151.591C168.251 154.466 166.887 157.218 164.666 159.44Z" fill="#FFD064"></path>
    <path d="M36.1489 102.923C32.5627 102.923 29.5199 100.605 28.4306 97.3867C28.1527 98.2074 28 99.0855 28 99.9998C28 104.5 31.6484 108.149 36.1489 108.149C40.6495 108.149 44.2979 104.5 44.2979 99.9998C44.2979 99.0855 44.1452 98.2074 43.8673 97.387C42.778 100.605 39.7352 102.923 36.1489 102.923V102.923Z" fill="#E49542"></path>
    <path d="M163.851 102.923C160.265 102.923 157.222 100.605 156.133 97.3867C155.855 98.2071 155.702 99.0855 155.702 99.9995C155.702 104.5 159.35 108.148 163.851 108.148C168.352 108.149 172 104.5 172 99.9998C172 99.0855 171.847 98.2074 171.569 97.387C170.48 100.605 167.437 102.923 163.851 102.923Z" fill="#95D6A4"></path>
    <path d="M164.666 51.0317C158.888 56.8097 149.52 56.8097 143.742 51.0317C141.52 48.8101 140.157 46.0576 139.643 43.1826C138.822 47.785 140.186 52.701 143.742 56.2576C149.52 62.0356 158.888 62.0356 164.666 56.2576C168.222 52.7012 169.586 47.785 168.765 43.1826C168.251 46.0576 166.887 48.8101 164.666 51.0317Z" fill="#83C8EA"></path>
    <path d="M100 39.0723C96.4138 39.0723 93.3709 36.7548 92.2817 33.5361C92.0041 34.3565 91.8511 35.2349 91.8511 36.1489C91.8511 40.6495 95.4994 44.2979 100 44.2979C104.501 44.2979 108.149 40.6495 108.149 36.1489C108.149 35.2346 107.996 34.3565 107.718 33.5361C106.629 36.7548 103.586 39.0723 100 39.0723V39.0723Z" fill="#95D6A4"></path>
    <path d="M56.258 51.0317C50.48 56.8097 41.1122 56.8097 35.3342 51.0317C33.1126 48.8101 31.7488 46.0576 31.2355 43.1826C30.4137 47.785 31.7777 52.701 35.3342 56.2576C41.1122 62.0356 50.48 62.0356 56.258 56.2576C59.8144 52.7012 61.1782 47.785 60.3567 43.1826C59.8431 46.0576 58.4793 48.8101 56.258 51.0317V51.0317Z" fill="#FFD064"></path>
  </g>
  <defs>
    <clipPath id="clip0_537_386">
      <rect width="144" height="144" fill="white" transform="translate(28 28)"></rect>
    </clipPath>
  </defs>
</svg>
